<svg width="40" height="40" class="icon" version="1.1" id="Layer_1" xmlns="http://www.w3.org/2000/svg" xmlns:xlink="http://www.w3.org/1999/xlink" x="0px" y="0px" viewBox="0 0 512 512" style="enable-background:new 0 0 512 512;" xml:space="preserve">
									<path class="st0" d="M488.6,120.6c0-0.1,0-0.2,0-0.3c-0.9-6.6-1.4-10-1.4-10c-0.5-3.3-2.7-6.1-5.9-7.3l-147-55.4l-16.9-36.1
									c-1.3-2.8-3.9-4.7-6.9-5.2c-0.5-0.1-1-0.1-1.5-0.1v0H202.9v0c-0.5,0-1,0-1.5,0.1c-3,0.5-5.6,2.4-6.9,5.2l-16.9,36.1L30.7,103
									c-3.2,1.2-5.4,4-5.9,7.3c0,0-0.5,3.5-1.4,10c0,0.1,0,0.2,0,0.3C17.8,162.2,0,311.5,0,496.6c0,5.1,4.1,9.3,9.3,9.3h493.5
									c5.1,0,9.3-4.1,9.3-9.3C512,311.5,494.2,162.3,488.6,120.6z M318,56.3c-0.8,5.1-2.7,16.8-5.5,33.1c-13.9-10.3-29.3-17.7-40.1-22.2
									l34.1-35.6L318,56.3z M308.8,110.2c-4.5,25.2-10.5,56.6-17.6,90l-15.6-73.7L290,96.7C296.5,100.5,303.1,105.1,308.8,110.2z
									 M273.6,88l-13.3,27.5h-8.6L238.4,88c7.7-3.6,14.1-6,17.6-7.3C259.5,82,266,84.4,273.6,88z M287.4,24.7L287.4,24.7L256,57.5
									l-31.4-32.9H287.4z M205.6,31.6l34.1,35.6c-10.8,4.5-26.3,11.9-40.1,22.2c-2.8-16.3-4.7-28-5.5-33.1L205.6,31.6z M236.4,126.4
									l-15.6,73.7c-7.1-33.3-13.1-64.8-17.6-89.9c5.7-5.1,12.3-9.6,18.8-13.5L236.4,126.4z M130.2,85.3L130.2,85.3l46.9-17.7
									c1.5,9,3.8,22.9,6.9,40.2c0,0.5,0.1,0.9,0.2,1.3c9.6,54,26.4,139.9,46.9,210.7c-28-38.7-67.2-100.1-87.3-163.8l26.8-32.3
									c2-2.4,2.6-5.6,1.7-8.6c-0.9-3-3.2-5.3-6.2-6.2l-36-11V85.3z M86.9,487.3H18.5C19,343.2,30.2,222.1,37.3,158.8
									c27.8,78.6,53.6,200.5,56.4,213.8L86.9,487.3z M106.1,487.3h-0.6l1.8-29.8h42.1C142.5,475.4,125.3,487.3,106.1,487.3z M246.7,487.3
									h-95.4c7-6.9,12.6-15.4,15.9-25.2l3.8-10.9c1-2.8,0.5-6-1.2-8.4c-1.7-2.4-4.5-3.9-7.5-3.9h-54l3.9-66.5c0-0.8,0-1.6-0.2-2.4
									c-0.1-0.4-9.1-44.4-22.3-97.1c-17.3-69.2-33.4-120.6-47.7-152.7c0.1-0.7,0.2-1.3,0.3-1.9l69.3-26.1v12.6c0,4.1,2.7,7.7,6.6,8.9
									l29.3,8.9l-21.1,25.5c-2,2.4-2.6,5.6-1.7,8.6c30.3,100.8,108,196.7,122.2,213.7V487.3z M230.5,243.7L253,137.2l0.1,0
									c1.9,0.6,3.9,0.6,5.8,0l0.1,0l22.6,106.4c-7.7,32.9-16.3,65.8-25.5,94.7C246.8,309.5,238.2,276.6,230.5,243.7z M345.8,251.8
									l32.8-69.2c3.4-8.8,6.3-17.5,8.9-25.9c0.9-3,0.2-6.2-1.7-8.6l-21.1-25.5l29.3-8.9c3.9-1.2,6.6-4.8,6.6-8.9V92.2l69.3,26.1
									c0.1,0.6,0.2,1.2,0.3,1.9c-34.3,77-68.6,242.7-70,249.8c-0.2,0.8-0.2,1.6-0.2,2.4l3.9,66.5h-55.4c-3,0-5.8,1.4-7.5,3.9
									c-1.7,2.4-2.2,5.6-1.2,8.4l3.8,10.9c3.4,9.7,8.9,18.3,15.9,25.2h-94v0V370.4c9.6-11.5,48.1-59.1,81.3-119.4l18.8-40.2l-14-9.3
									c-0.4,2.2,0,3.7-6.5,14c-3.2,5-6.5,12.1-11.2,20.5c-17.5,32.7-36.9,61.8-52.7,83.7c20.4-70.8,37.2-156.5,46.8-210.5
									c0.1-0.4,0.2-0.9,0.2-1.3c3.1-17.3,5.4-31.3,6.9-40.2l46.9,17.7V98l-36,11c-3,0.9-5.3,3.2-6.2,6.2c-0.9,3-0.2,6.2,1.7,8.6l26.8,32.3
									c-2.7,8.5-14.2,40.2-17.8,49.1 M404.6,487.3c-19.3,0-36.4-11.9-43.3-29.8h43.5l1.8,29.8H404.6z M425.1,487.3L425.1,487.3l-6.8-114.7
									c2.8-13.3,28.6-135.3,56.4-213.8c7.2,63.3,18.3,184.4,18.8,328.5H425.1z"></path>
								</svg>