<svg width="40" height="40" class="icon" version="1.1" id="Layer_1" xmlns="http://www.w3.org/2000/svg" xmlns:xlink="http://www.w3.org/1999/xlink" x="0px" y="0px" viewBox="0 0 520 512" style="enable-background:new 0 0 512 512;" xml:space="preserve">
									<path class="st0" d="M287.1,429.5c-0.8,0-1.6-0.1-2.4-0.2c-5.1,0.1-9.9,0.2-14.7,0.2H52.4c-22.7,0-41.2-18.5-41.2-41.2V355
                                            c0-11.8,4.7-22.9,12.9-30.8c-2.8-7.8-4.3-16.6-4.3-25.5v-93.9c0-35.8,26-69,73.1-93.4C139.4,87.3,202.3,74,270,74
                                            c67.7,0,130.6,13.3,177.2,37.4c47.1,24.4,73.1,57.6,73.1,93.4v93.9c0,52.3-55.2,97.8-144.1,119c-1,0.4-2,0.6-3.1,0.7
                                            c-12.9,3-26.4,5.4-40.1,7.1c-1.1,0.4-2.2,0.6-3.3,0.6c-0.3,0-0.7,0-1.1,0c-12.7,1.5-25.7,2.6-38.7,3.1
                                            C289,429.4,288,429.5,287.1,429.5z M270,406.8c1.8,0,3.6,0,5.7,0v-14.2c0-6.7,4.7-11.4,11.4-11.4s11.4,4.7,11.4,11.4v13.3
                                            c6.7-0.4,13.4-1,19.9-1.7v-11.6c0-6.7,4.7-11.4,11.4-11.4c6.7,0,11.4,4.7,11.4,11.4v8.5c6.7-1.1,13.4-2.4,19.9-3.8V384
                                            c0-6.7,4.7-11.4,11.4-11.4c6.7,0,11.4,4.7,11.4,11.4v7.5c6.9-2,13.6-4.1,19.9-6.4v-18.2c0-6.7,4.7-11.4,11.4-11.4
                                            c6.7,0,11.4,4.7,11.4,11.4v9c7.1-3.2,13.7-6.7,19.9-10.3v-15.8c0-6.7,4.7-11.4,11.4-11.4c6.6,0,11.3,4.6,11.4,11.2
                                            c4.2-3.6,8.1-7.4,11.4-11.2v-14.2c0-6.7,4.7-11.4,11.4-11.4c1.1,0,2.3,0.2,3.4,0.5c1.5-4.9,2.3-9.9,2.3-14.8v-38.2
                                            c-2.2,2.5-4.6,5-7.2,7.5c-0.4,0.4-0.8,0.7-1.2,1.1l-0.6,0.6c-40.9,38.4-116.5,63-202.3,65.7l-2.1,0.1c-1,0-1.9,0-2.9,0.1
                                            c-1.1,0-2.3,0-3.4,0.1l-2.2,0c-1.9,0-3.9,0-5.8,0H127.8v71.1h19.9v-14.2c0-6.7,4.7-11.4,11.4-11.4c6.7,0,11.4,4.7,11.4,11.4v14.2
                                            h19.9v-14.2c0-6.7,4.7-11.4,11.4-11.4c6.7,0,11.4,4.7,11.4,11.4v14.2H233v-14.2c0-6.7,4.7-11.4,11.4-11.4c6.7,0,11.4,4.7,11.4,11.4
                                            v14.2H270z M52.4,335.6c-10.4,0-18.5,8.1-18.5,18.5v33.3c0,11,8,19.4,18.5,19.4H105v-71.1H52.4z M270,96.7
                                            c-59.8,0-116.8,11.6-160.7,32.8c-42.5,20.5-66.9,47.9-66.9,75.3c0,27.4,24.4,54.8,66.9,75.3c43.8,21.1,100.9,32.8,160.7,32.8
                                            c59.8,0,116.8-11.6,160.7-32.8c42.5-20.5,66.9-47.9,66.9-75.3c0-27.4-24.4-54.8-66.9-75.3C386.8,108.3,329.8,96.7,270,96.7z
                                             M42.4,298.7c0,4.8,0.6,9.1,1.9,14.2l82.6,0c-35.7-12.8-64.2-30.2-82.9-50.7c-0.5-0.6-1.1-1.2-1.6-1.7V298.7z"></path>
                            <path class="st0" d="M270,284.4c-82.9,0-147.9-35-147.9-79.6c0-44.7,65-79.6,147.9-79.6s147.9,35,147.9,79.6
                                            C417.9,249.5,352.9,284.4,270,284.4z M270,147.9c-32.6,0-64.9,6.4-88.7,17.4c-23.2,10.8-36.4,25.2-36.4,39.5s13.3,28.7,36.4,39.5
                                            c23.8,11.1,56.1,17.4,88.7,17.4s64.9-6.4,88.7-17.4c23.2-10.8,36.4-25.2,36.4-39.5c0-14.3-13.3-28.7-36.4-39.5
                                            C334.9,154.3,302.6,147.9,270,147.9z"></path>
                            <path class="st0" d="M270,250.3c-21.6,0-41.6-4.4-56.1-12.4c-15.2-8.4-23.5-20.1-23.5-33.1c0-13,8.4-24.7,23.5-33.1
                                            c14.5-8,34.5-12.4,56.1-12.4c21.6,0,41.6,4.4,56.1,12.4c15.2,8.4,23.5,20.1,23.5,33.1s-8.4,24.7-23.5,33.1
                                            C311.6,245.9,291.6,250.3,270,250.3z M270,182c-34.2,0-56.9,13.7-56.9,22.8s22.7,22.8,56.9,22.8s56.9-13.7,56.9-22.8
                                            S304.2,182,270,182z"></path>
                            <path class="st0" d="M69.5,403.9c-17.7,0-32.7-15-32.7-32.7c0-17.7,15-32.7,32.7-32.7s32.7,15,32.7,32.7
                                            C102.2,388.9,87.2,403.9,69.5,403.9z M69.5,361.2c-5.2,0-10,4.7-10,10s4.8,10,10,10c5.2,0,10-4.8,10-10S74.7,361.2,69.5,361.2z"></path>
								</svg>